<?xml version="1.0" encoding="UTF-8" standalone="no"?>
<!-- Created with Inkscape (http://www.inkscape.org/) -->

<svg
   xmlns:dc="http://purl.org/dc/elements/1.1/"
   xmlns:cc="http://creativecommons.org/ns#"
   xmlns:rdf="http://www.w3.org/1999/02/22-rdf-syntax-ns#"
   xmlns:svg="http://www.w3.org/2000/svg"
   xmlns="http://www.w3.org/2000/svg"
   xmlns:sodipodi="http://sodipodi.sourceforge.net/DTD/sodipodi-0.dtd"
   xmlns:inkscape="http://www.inkscape.org/namespaces/inkscape"
   width="256"
   height="256"
   viewBox="0 0 67.733331 67.733331"
   version="1.1"
   id="svg8"
   inkscape:version="0.92.4 (5da689c313, 2019-01-14)"
   sodipodi:docname="favicon-init.svg">
  <defs
     id="defs2" />
  <sodipodi:namedview
     id="base"
     pagecolor="#ffffff"
     bordercolor="#666666"
     borderopacity="1.0"
     inkscape:pageopacity="0.0"
     inkscape:pageshadow="2"
     inkscape:zoom="1.4"
     inkscape:cx="280.72523"
     inkscape:cy="199.76039"
     inkscape:document-units="mm"
     inkscape:current-layer="layer1"
     showgrid="false"
     inkscape:snap-bbox="true"
     inkscape:bbox-paths="true"
     inkscape:bbox-nodes="true"
     inkscape:snap-bbox-edge-midpoints="true"
     inkscape:snap-bbox-midpoints="true"
     inkscape:snap-object-midpoints="true"
     inkscape:snap-center="true"
     inkscape:snap-midpoints="false"
     inkscape:snap-smooth-nodes="false"
     inkscape:object-paths="true"
     inkscape:snap-global="true"
     inkscape:object-nodes="false"
     inkscape:snap-nodes="true"
     inkscape:snap-others="true"
     inkscape:snap-intersection-paths="false"
     units="px"
     inkscape:showpageshadow="false"
     inkscape:snap-page="true"
     inkscape:window-width="1920"
     inkscape:window-height="1001"
     inkscape:window-x="-9"
     inkscape:window-y="-9"
     inkscape:window-maximized="1" />
  <metadata
     id="metadata5">
    <rdf:RDF>
      <cc:Work
         rdf:about="">
        <dc:format>image/svg+xml</dc:format>
        <dc:type
           rdf:resource="http://purl.org/dc/dcmitype/StillImage" />
        <dc:title></dc:title>
      </cc:Work>
    </rdf:RDF>
  </metadata>
  <g
     inkscape:label="Layer 1"
     inkscape:groupmode="layer"
     id="layer1"
     transform="translate(0,-229.26668)">
    <g
       id="g1394"
       transform="matrix(0.29267629,0,0,0.29267629,82.486202,220.73491)">
      <path
         transform="matrix(1.4260755,0,0,1.4260666,71.070688,-61.773055)"
         inkscape:transform-center-y="-0.16904151"
         inkscape:transform-center-x="-0.96267951"
         d="m -94.219239,146.1162 c -0.178365,11.41539 -41.016141,-5.62177 -43.564001,5.50708 -2.54787,11.12886 41.634664,13.55641 36.82866,23.91234 -4.806,10.35593 -35.18353,-21.81851 -42.03763,-12.6881 -6.8541,9.1304 32.52127,29.31874 23.91863,36.82458 -8.60263,7.50583 -23.26737,-34.24264 -33.24257,-28.68941 -9.9752,5.55323 17.78466,40.0116 6.87286,43.36951 -10.9118,3.35791 -7.32807,-40.74589 -18.69957,-39.73005 -11.3715,1.01585 -0.0271,43.78609 -11.3613,42.41546 -11.33421,-1.37062 9.87832,-40.20382 -0.92324,-43.901 -10.80156,-3.69719 -17.83415,39.98956 -27.63099,34.12739 -9.79683,-5.86216 25.37667,-32.71014 17.01273,-40.48107 -8.36394,-7.77094 -32.55753,29.27847 -39.12303,19.93839 -6.5655,-9.34009 36.48715,-19.56058 32.00704,-30.06161 -4.48011,-10.50103 -41.65141,13.50488 -43.85034,2.30186 -2.19892,-11.20302 41.28868,-3.02882 41.46704,-14.44421 0.17837,-11.41539 -43.54338,-4.60383 -40.99552,-15.73269 2.54786,-11.12885 38.95101,14.02666 43.75701,3.67072 4.806,-10.35593 -37.90631,-21.9165 -31.05222,-31.0469 6.8541,-9.130407 29.87837,28.65679 38.48101,21.15095 8.60264,-7.50584 -25.7149,-35.439607 -15.7397,-40.992833 9.97521,-5.553227 15.63948,38.331903 26.55128,34.973993 10.9118,-3.35792 -9.07714,-42.834886 2.29436,-43.850731 11.3715,-1.015844 -1.30361,41.379091 10.0306,42.749711 11.33421,1.37062 9.13013,-42.823621 19.9317,-39.126435 10.80156,3.697186 -18.0213,37.271445 -8.22447,43.133615 9.79684,5.86216 25.75873,-35.407763 34.12267,-27.636824 8.36394,7.770939 -31.62294,26.719234 -25.05745,36.059324 6.5655,9.34009 37.93341,-21.86958 42.41352,-11.36855 4.480115,10.50102 -39.75669,11.54703 -37.55776,22.75005 2.19892,11.20302 43.549047,-4.54995 43.370681,6.86544 z"
         inkscape:randomized="0"
         inkscape:rounded="0.26"
         inkscape:flatsided="false"
         sodipodi:arg2="0.22506324"
         sodipodi:arg1="0.015623729"
         sodipodi:r2="29.757915"
         sodipodi:r1="72.580284"
         sodipodi:cy="144.98227"
         sodipodi:cx="-166.79066"
         sodipodi:sides="15"
         id="path1137"
         style="opacity:1;fill:#ff0000;fill-opacity:1;stroke:none;stroke-width:0.55659914;stroke-linecap:round;stroke-linejoin:miter;stroke-miterlimit:4;stroke-dasharray:none;stroke-dashoffset:15.17888546;stroke-opacity:1;paint-order:fill markers stroke"
         sodipodi:type="star" />
      <path
         transform="scale(0.26458333)"
         id="path1339"
         d="m -822.94531,248.74805 c 2.15798,4.41454 4.62059,8.98857 7.48242,13.77148 0.69272,1.15772 1.5656,2.41187 2.29297,3.58789 3.48516,-2.29843 6.97664,-4.58898 10.55078,-6.75976 4.63101,-2.81269 9.33523,-5.51721 14.10937,-8.10938 4.77415,-2.59216 9.61905,-5.07094 14.5293,-7.43555 0.0532,-0.0256 0.10889,-0.0467 0.16211,-0.0723 -0.5572,-1.11508 -1.10469,-2.38573 -1.66406,-3.46875 -2.62739,-5.08701 -5.28612,-9.73813 -7.97461,-13.98633 -4.8862,2.37315 -9.72167,4.83542 -14.48047,7.42188 -5.05718,2.74863 -10.04124,5.61539 -14.94727,8.59765 -3.40866,2.07205 -6.72792,4.27137 -10.06054,6.45313 z"
         style="opacity:1;fill:#ffffff;fill-opacity:1;stroke:none;stroke-width:31.99999809;stroke-linecap:round;stroke-linejoin:miter;stroke-miterlimit:4;stroke-dasharray:none;stroke-dashoffset:15.17888546;stroke-opacity:1;paint-order:fill markers stroke"
         inkscape:connector-curvature="0" />
      <path
         id="path1337"
         transform="scale(0.26458333)"
         d="m -627.85742,127.67578 a 419.84323,419.84323 0 0 0 -419.84378,419.84375 419.84323,419.84323 0 0 0 419.84378,419.84375 419.84323,419.84323 0 0 0 419.84375,-419.84375 419.84323,419.84323 0 0 0 -419.84375,-419.84375 z m -0.002,62.91797 c 6.1564,0 12.27721,0.15624 18.35743,0.46484 6.08021,0.30861 12.12065,0.7692 18.11718,1.37891 5.99653,0.60971 11.94817,1.36817 17.85352,2.27148 5.90535,0.90332 11.76364,1.9512 17.57031,3.14063 5.80668,1.18943 11.56317,2.52024 17.26367,3.98828 0.88778,0.22863 1.75163,0.51472 2.63672,0.75 4.7982,1.27548 9.57816,2.5942 14.29493,4.0625 5.58682,1.73915 11.11441,3.61248 16.58007,5.61523 4.04105,1.48076 8.01117,3.10723 11.98243,4.72852 1.39999,0.57156 2.83353,1.07724 4.2246,1.66602 5.33701,2.25888 10.60776,4.64288 15.8086,7.15039 5.20084,2.50751 10.33149,5.13808 15.38867,7.88672 5.05718,2.74863 10.04124,5.61539 14.94727,8.59765 4.90602,2.98226 9.73309,6.07873 14.48046,9.28711 4.74738,3.20839 9.41487,6.52806 13.9961,9.95508 3.79474,2.83868 7.49388,5.79531 11.16992,8.7793 0.76188,0.61845 1.55778,1.19573 2.31445,1.82031 4.40759,3.63815 8.72669,7.38087 12.95313,11.22266 4.22644,3.84177 8.36063,7.78434 12.39844,11.82226 1.86357,1.86363 3.63284,3.81841 5.45507,5.72266 2.12599,2.22166 4.29663,4.39992 6.36524,6.67578 3.84166,4.22655 7.58462,8.54543 11.22265,12.95312 3.63804,4.4077 7.17271,8.90304 10.59961,13.48438 3.42691,4.58134 6.74485,9.24861 9.95313,13.99609 3.20828,4.74749 6.30691,9.57629 9.28906,14.48242 2.98216,4.90614 5.84912,9.88999 8.59766,14.94727 1.62732,2.99426 3.12463,6.06618 4.66797,9.11133 1.06334,2.09809 2.19394,4.15572 3.21679,6.27734 2.50742,5.20094 4.89354,10.47152 7.15235,15.80859 2.2588,5.33709 4.38989,10.74129 6.39257,16.20704 0.36448,0.99471 0.66565,2.01874 1.02149,3.01757 1.59943,4.48952 3.17116,8.99237 4.59375,13.5625 1.73908,5.58691 3.34452,11.23304 4.8125,16.9336 1.46798,5.70056 2.7989,11.45499 3.98828,17.26172 1.18938,5.80672 2.23735,11.66492 3.14063,17.57031 0.90327,5.90539 1.6618,11.85891 2.27148,17.85547 0.60968,5.99656 1.07032,12.03696 1.37891,18.11719 0.0322,0.63532 0.0199,1.28177 0.0488,1.91796 0.24779,5.45235 0.41602,10.92439 0.41602,16.4375 0,6.1564 -0.15625,12.27721 -0.46484,18.35743 -0.17336,3.41571 -0.5065,6.78791 -0.77539,10.17773 -0.20976,2.6443 -0.33634,5.31163 -0.60352,7.93945 -0.60968,5.99653 -1.36821,11.95012 -2.27148,17.85547 -0.90328,5.90535 -1.95125,11.76169 -3.14063,17.56836 -1.18938,5.80668 -2.5203,11.56317 -3.98828,17.26367 -1.46798,5.70051 -3.07342,11.34481 -4.8125,16.93164 -1.73908,5.58684 -3.61254,11.11637 -5.61524,16.58204 -1.01186,2.76156 -2.15274,5.4583 -3.23046,8.1875 -1.05531,2.6724 -2.04459,5.37713 -3.16211,8.01757 -2.25881,5.33701 -4.64493,10.60776 -7.15235,15.8086 -2.50741,5.20084 -5.13623,10.33149 -7.88476,15.38867 -0.29119,0.53578 -0.61631,1.04986 -0.91016,1.58398 -2.47979,4.50741 -5.02129,8.97702 -7.6875,13.36329 -2.98215,4.90601 -6.08078,9.73504 -9.28906,14.48242 -3.20828,4.74737 -6.52622,9.41291 -9.95313,13.99414 -3.4269,4.58123 -6.96157,9.07679 -10.59961,13.48437 -3.63803,4.40759 -7.38099,8.72669 -11.22265,12.95313 -3.84167,4.22644 -7.78251,8.36063 -11.82031,12.39844 -0.90193,0.90191 -1.85806,1.74834 -2.76954,2.64062 -3.16911,3.10236 -6.34652,6.19808 -9.6289,9.18164 -4.22644,3.84167 -8.54554,7.58267 -12.95313,11.2207 -3.80533,3.14094 -7.70744,6.16645 -11.64257,9.15039 -0.6228,0.47226 -1.21582,0.98097 -1.8418,1.44922 -4.58123,3.42691 -9.24872,6.7468 -13.9961,9.95508 -4.74737,3.20828 -9.57444,6.30496 -14.48046,9.28711 -4.90603,2.98215 -9.89009,5.84912 -14.94727,8.59766 -5.05718,2.74853 -10.18783,5.37735 -15.38867,7.88476 -5.20084,2.50742 -10.47159,4.89354 -15.8086,7.15235 -4.87527,2.06338 -9.82178,3.99185 -14.80468,5.84179 -0.47193,0.17521 -0.92948,0.37947 -1.40235,0.55274 -5.46566,2.00269 -10.99325,3.8742 -16.58007,5.61328 -5.58684,1.73908 -11.23114,3.34452 -16.93165,4.8125 -2.83317,0.72959 -5.7202,1.32118 -8.58007,1.98242 -2.89434,0.66921 -5.76287,1.40761 -8.6836,2.00586 -5.80667,1.18938 -11.66496,2.23736 -17.57031,3.14062 -5.90535,0.90328 -11.85699,1.66181 -17.85352,2.27149 -5.99653,0.60968 -12.03697,1.07032 -18.11718,1.37891 -6.08022,0.30859 -12.20103,0.46484 -18.35743,0.46484 -6.15638,0 -12.2772,-0.15625 -18.35742,-0.46484 -1.43812,-0.073 -2.85156,-0.23618 -4.28515,-0.32618 -4.6275,-0.29048 -9.25383,-0.58725 -13.83203,-1.05273 -5.99654,-0.60968 -11.94817,-1.36821 -17.85352,-2.27149 -4.49924,-0.68818 -8.94424,-1.53778 -13.38672,-2.39257 -1.38837,-0.26714 -2.80098,-0.46485 -4.18359,-0.74805 -5.80668,-1.18938 -11.56122,-2.5203 -17.26172,-3.98828 -5.7005,-1.46798 -11.34677,-3.07342 -16.93359,-4.8125 -5.58684,-1.73908 -11.11442,-3.61059 -16.58008,-5.61328 -5.46567,-2.00269 -10.87003,-4.13573 -16.20703,-6.39453 -5.33701,-2.25881 -10.60776,-4.64493 -15.8086,-7.15235 -3.51172,-1.69306 -6.94385,-3.52067 -10.39062,-5.32422 -1.65789,-0.8675 -3.35558,-1.66788 -4.99805,-2.56054 -5.05718,-2.74854 -10.04124,-5.61551 -14.94727,-8.59766 -4.90602,-2.98215 -9.73309,-6.07883 -14.48046,-9.28711 -1.50052,-1.01405 -2.93966,-2.11033 -4.42383,-3.14648 -3.2115,-2.24204 -6.43904,-4.46485 -9.57227,-6.8086 -4.58123,-3.4269 -9.07679,-6.96157 -13.48437,-10.59961 -4.40759,-3.63803 -8.72669,-7.37903 -12.95313,-11.2207 -4.22644,-3.84167 -8.36063,-7.78447 -12.39844,-11.82226 -4.0378,-4.03781 -7.97864,-8.172 -11.82031,-12.39844 -3.84166,-4.22644 -7.58462,-8.54554 -11.22265,-12.95313 -1.20794,-1.46344 -2.3346,-2.9937 -3.51954,-4.47656 -2.38383,-2.98321 -4.78905,-5.94768 -7.07812,-9.00781 -3.4269,-4.58123 -6.7468,-9.24677 -9.95508,-13.99414 -3.14554,-4.65454 -6.17723,-9.39211 -9.10547,-14.19922 -0.0584,-0.0959 -0.12332,-0.18727 -0.18164,-0.2832 -2.98215,-4.90603 -5.85107,-9.89009 -8.59961,-14.94727 -2.74853,-5.05718 -5.37735,-10.18783 -7.88476,-15.38867 -2.50742,-5.20084 -4.89159,-10.47159 -7.15039,-15.8086 -2.25881,-5.337 -4.39184,-10.73941 -6.39454,-16.20507 -2.00268,-5.46567 -3.87615,-10.9952 -5.61523,-16.58204 -1.56396,-5.02424 -2.98311,-10.11008 -4.32812,-15.22656 -0.15061,-0.57292 -0.33655,-1.13104 -0.48438,-1.70508 -1.46798,-5.7005 -2.7989,-11.45699 -3.98828,-17.26367 -1.18938,-5.80667 -2.23735,-11.66301 -3.14063,-17.56836 -0.40984,-2.67946 -0.68142,-5.40291 -1.03125,-8.10156 -0.42116,-3.249 -0.90718,-6.47821 -1.24023,-9.75391 -0.60968,-5.99653 -1.07032,-12.03697 -1.37891,-18.11718 -0.30859,-6.08022 -0.46484,-12.20103 -0.46484,-18.35743 0,-6.15639 0.15625,-12.27524 0.46484,-18.35546 0.30859,-6.08023 0.76923,-12.12063 1.37891,-18.11719 0.60968,-5.99656 1.36821,-11.95008 2.27148,-17.85547 0.10412,-0.68069 0.25337,-1.34596 0.36133,-2.02539 0.82868,-5.21497 1.72702,-10.40752 2.7793,-15.54492 1.18938,-5.80673 2.5203,-11.56116 3.98828,-17.26172 0.99997,-3.88314 2.15103,-7.70421 3.27734,-11.53516 0.52715,-1.793 0.98072,-3.61725 1.53516,-5.39844 1.73908,-5.5869 3.61255,-11.11433 5.61523,-16.58007 2.0027,-5.46575 4.13573,-10.86995 6.39454,-16.20704 2.2588,-5.33707 4.64297,-10.60765 7.15039,-15.80859 2.50741,-5.20093 5.13623,-10.33139 7.88476,-15.38867 2.74854,-5.05728 5.61746,-10.04113 8.59961,-14.94727 1.85644,-3.05414 3.83664,-6.02241 5.78125,-9.01562 1.17919,-1.81504 2.29479,-3.6747 3.50586,-5.4668 3.20828,-4.74748 6.52818,-9.41475 9.95508,-13.99609 3.4269,-4.58134 6.95962,-9.07668 10.59766,-13.48438 0.99193,-1.20179 2.05326,-2.34272 3.06054,-3.53125 2.68702,-3.17052 5.36791,-6.34772 8.16211,-9.42187 3.84167,-4.22656 7.78251,-8.36052 11.82031,-12.39844 4.03781,-4.03792 8.172,-7.98049 12.39844,-11.82226 4.22644,-3.84179 8.54554,-7.58451 12.95313,-11.22266 4.40758,-3.63815 8.90314,-7.1726 13.48437,-10.59961 4.58123,-3.42702 9.24872,-6.74669 13.9961,-9.95508 1.44894,-0.97923 2.95595,-1.87557 4.41992,-2.83398 3.33262,-2.18176 6.65188,-4.38108 10.06054,-6.45313 4.90603,-2.98226 9.89009,-5.84902 14.94727,-8.59765 4.7588,-2.58646 9.59427,-5.04873 14.48047,-7.42188 0.30637,-0.1488 0.60134,-0.3169 0.9082,-0.46484 5.20084,-2.50751 10.47159,-4.89151 15.8086,-7.15039 5.337,-2.25889 10.74136,-4.39177 16.20703,-6.39454 5.46566,-2.00275 10.99324,-3.87608 16.58008,-5.61523 5.58682,-1.73915 11.23309,-3.34446 16.93359,-4.8125 5.7005,-1.46804 11.45504,-2.79885 17.26172,-3.98828 4.98107,-1.02031 10.01819,-1.88319 15.07226,-2.69336 0.83771,-0.13428 1.65842,-0.31883 2.49805,-0.44727 5.90535,-0.90331 11.85698,-1.66177 17.85352,-2.27148 5.99653,-0.60971 12.03697,-1.0703 18.11718,-1.37891 2.23116,-0.11324 4.4946,-0.0979 6.73633,-0.16992 3.86731,-0.12422 7.72382,-0.29492 11.62109,-0.29492 z"
         style="opacity:1;fill:#ffffff;fill-opacity:1;stroke:none;stroke-width:31.99999809;stroke-linecap:round;stroke-linejoin:miter;stroke-miterlimit:4;stroke-dasharray:none;stroke-dashoffset:15.17888546;stroke-opacity:1;paint-order:fill markers stroke"
         inkscape:connector-curvature="0" />
      <path
         transform="scale(0.26458333)"
         id="path1335"
         d="m -927.29883,353.48047 c 3.60215,2.98048 7.43534,5.97517 11.73828,9 1.33486,0.93836 2.90714,1.89367 4.29883,2.83594 1.3339,-2.07156 2.61053,-4.18263 3.98828,-6.22266 3.02618,-4.48083 6.158,-8.88536 9.39063,-13.20898 3.23263,-4.32363 6.56599,-8.56719 9.99804,-12.72657 1.14766,-1.39087 2.36963,-2.71591 3.53907,-4.08789 -1.23341,-1.02199 -2.52857,-2.21029 -3.74414,-3.18359 -4.16485,-3.33477 -8.17067,-6.23097 -12.08985,-8.88477 -1.00728,1.18853 -2.06861,2.32946 -3.06054,3.53125 -3.63804,4.4077 -7.17076,8.90304 -10.59766,13.48438 -3.4269,4.58134 -6.7468,9.24861 -9.95508,13.99609 -1.21107,1.7921 -2.32667,3.65176 -3.50586,5.4668 z"
         style="opacity:1;fill:#ffffff;fill-opacity:1;stroke:none;stroke-width:31.99999809;stroke-linecap:round;stroke-linejoin:miter;stroke-miterlimit:4;stroke-dasharray:none;stroke-dashoffset:15.17888546;stroke-opacity:1;paint-order:fill markers stroke"
         inkscape:connector-curvature="0" />
      <path
         transform="scale(0.26458333)"
         id="path1331"
         d="m -980.30469,491.16797 c 4.39048,1.21228 8.94839,2.36054 13.95703,3.34375 1.7573,0.34496 3.75479,0.60223 5.57618,0.92383 0.82483,-5.32323 1.75749,-10.61214 2.82812,-15.84961 1.12129,-5.48525 2.37575,-10.92232 3.75977,-16.30664 1.02214,-3.9765 2.18945,-7.89244 3.35156,-11.81055 -1.73945,-0.49075 -3.60857,-1.11464 -5.30274,-1.55859 -4.97286,-1.30315 -9.61526,-2.26306 -14.125,-3.08399 -1.12631,3.83095 -2.27737,7.65202 -3.27734,11.53516 -1.46798,5.70056 -2.7989,11.45499 -3.98828,17.26172 -1.05228,5.1374 -1.95062,10.32995 -2.7793,15.54492 z"
         style="opacity:1;fill:#ffffff;fill-opacity:1;stroke:none;stroke-width:31.99999809;stroke-linecap:round;stroke-linejoin:miter;stroke-miterlimit:4;stroke-dasharray:none;stroke-dashoffset:15.17888546;stroke-opacity:1;paint-order:fill markers stroke"
         inkscape:connector-curvature="0" />
      <path
         transform="scale(0.26458333)"
         id="path1327"
         d="m -973.05273,638.38867 c 4.47656,-0.67687 9.07292,-1.47054 14.01367,-2.60156 1.78209,-0.40795 3.75089,-0.99575 5.58398,-1.45313 -0.22908,-0.86251 -0.50611,-1.70508 -0.72851,-2.57031 -1.38402,-5.38432 -2.63848,-10.82139 -3.75977,-16.30664 -1.12128,-5.48525 -2.10942,-11.01851 -2.96094,-16.59765 -0.44188,-2.89521 -0.74353,-5.83486 -1.11132,-8.75391 -1.91018,0.27464 -3.99632,0.47916 -5.8379,0.78125 -4.96089,0.81378 -9.47384,1.80925 -13.84375,2.86328 0.34983,2.69865 0.62141,5.4221 1.03125,8.10156 0.90328,5.90535 1.95125,11.76169 3.14063,17.56836 1.18938,5.80668 2.5203,11.56317 3.98828,17.26367 0.14783,0.57404 0.33377,1.13216 0.48438,1.70508 z"
         style="opacity:1;fill:#ffffff;fill-opacity:1;stroke:none;stroke-width:31.99999809;stroke-linecap:round;stroke-linejoin:miter;stroke-miterlimit:4;stroke-dasharray:none;stroke-dashoffset:15.17888546;stroke-opacity:1;paint-order:fill markers stroke"
         inkscape:connector-curvature="0" />
      <path
         transform="scale(0.26458333)"
         id="path1323"
         d="m -906.75977,770.03125 c 3.84867,-2.45635 7.76432,-5.08377 11.85743,-8.15625 1.39667,-1.04841 2.8876,-2.3289 4.30859,-3.4375 -2.46309,-3.06515 -4.93246,-6.12541 -7.28906,-9.27734 -3.23263,-4.32363 -6.36445,-8.72815 -9.39063,-13.20899 -3.02617,-4.48083 -5.94708,-9.03891 -8.75976,-13.66992 -0.15183,-0.24997 -0.28631,-0.51132 -0.4375,-0.76172 -1.5421,0.9723 -3.27049,1.95201 -4.7461,2.92188 -4.27416,2.80926 -8.06923,5.60104 -11.68164,8.38867 2.92824,4.80711 5.95993,9.54468 9.10547,14.19922 3.20828,4.74737 6.52818,9.41291 9.95508,13.99414 2.28907,3.06013 4.69429,6.0246 7.07812,9.00781 z"
         style="opacity:1;fill:#ffffff;fill-opacity:1;stroke:none;stroke-width:31.99999809;stroke-linecap:round;stroke-linejoin:miter;stroke-miterlimit:4;stroke-dasharray:none;stroke-dashoffset:15.17888546;stroke-opacity:1;paint-order:fill markers stroke"
         inkscape:connector-curvature="0" />
      <path
         transform="scale(0.26458333)"
         id="path1319"
         d="m -792.93945,863.90234 c 2.65227,-3.97055 5.29219,-8.21839 7.91406,-12.92773 0.73888,-1.32717 1.47002,-2.87926 2.20703,-4.25586 -1.89143,-0.98086 -3.82119,-1.89861 -5.69141,-2.91406 -4.77414,-2.59217 -9.47836,-5.29669 -14.10937,-8.10938 -4.63101,-2.81269 -9.18909,-5.73359 -13.66992,-8.75976 -1.74094,-1.17576 -3.41333,-2.44119 -5.13086,-3.64844 -0.91913,1.37932 -1.99979,2.83838 -2.86914,4.19336 -2.85385,4.44797 -5.28454,8.69131 -7.5,12.83008 1.48417,1.03615 2.92331,2.13243 4.42383,3.14648 4.74737,3.20828 9.57444,6.30496 14.48046,9.28711 4.90603,2.98215 9.89009,5.84912 14.94727,8.59766 1.64247,0.89266 3.34016,1.69304 4.99805,2.56054 z"
         style="opacity:1;fill:#ffffff;fill-opacity:1;stroke:none;stroke-width:31.99999809;stroke-linecap:round;stroke-linejoin:miter;stroke-miterlimit:4;stroke-dasharray:none;stroke-dashoffset:15.17888546;stroke-opacity:1;paint-order:fill markers stroke"
         inkscape:connector-curvature="0" />
      <path
         transform="scale(0.26458333)"
         id="path1315"
         d="m -650.50195,903.65234 c 0.88378,-4.95112 1.58589,-10.2654 2.0957,-15.9707 0.11013,-1.23245 0.13687,-2.63627 0.23242,-3.89844 -4.73917,-0.28155 -9.4701,-0.59909 -14.15429,-1.07422 -5.66601,-0.57471 -11.29,-1.29106 -16.86915,-2.14257 -4.66721,-0.71234 -9.28286,-1.57505 -13.88476,-2.47657 -0.22346,1.33419 -0.55063,2.79429 -0.75,4.09961 -0.85064,5.56916 -1.41554,10.79797 -1.74219,15.7461 4.44248,0.85479 8.88748,1.70438 13.38672,2.39257 5.90535,0.90328 11.85698,1.66181 17.85352,2.27149 4.5782,0.46548 9.20453,0.76225 13.83203,1.05273 z"
         style="opacity:1;fill:#ffffff;fill-opacity:1;stroke:none;stroke-width:31.99999809;stroke-linecap:round;stroke-linejoin:miter;stroke-miterlimit:4;stroke-dasharray:none;stroke-dashoffset:15.17888546;stroke-opacity:1;paint-order:fill markers stroke"
         inkscape:connector-curvature="0" />
      <path
         transform="scale(0.26458333)"
         id="path1311"
         d="m -503.7832,882.2207 c -0.0259,-0.10888 -0.0382,-0.20721 -0.0645,-0.3164 -1.2291,-5.10615 -2.86964,-10.55077 -4.82226,-16.25586 -0.27997,-0.818 -0.66652,-1.72623 -0.95899,-2.55469 -0.78583,0.29424 -1.54927,0.63334 -2.33789,0.92187 -5.16135,1.88839 -10.38184,3.65326 -15.6582,5.29297 -5.27636,1.63972 -10.60787,3.15309 -15.99219,4.53711 -3.14589,0.80864 -6.34649,1.47782 -9.52734,2.19727 0.25777,0.9838 0.47846,2.09954 0.74219,3.0625 1.58487,5.78702 3.28131,11.18172 5.125,16.07617 2.85987,-0.66124 5.7469,-1.25283 8.58007,-1.98242 5.70051,-1.46798 11.34481,-3.07342 16.93165,-4.8125 5.58683,-1.73908 11.11441,-3.61059 16.58007,-5.61328 0.47287,-0.17327 0.93042,-0.37753 1.40235,-0.55274 z"
         style="opacity:1;fill:#ffffff;fill-opacity:1;stroke:none;stroke-width:31.99999809;stroke-linecap:round;stroke-linejoin:miter;stroke-miterlimit:4;stroke-dasharray:none;stroke-dashoffset:15.17888546;stroke-opacity:1;paint-order:fill markers stroke"
         inkscape:connector-curvature="0" />
      <path
         transform="scale(0.26458333)"
         id="path1307"
         d="m -378.29102,802.5 c -0.23606,-0.31334 -0.42402,-0.61275 -0.66601,-0.92773 -3.19971,-4.16478 -6.91329,-8.47102 -11.01758,-12.88868 -0.38925,-0.41897 -0.87138,-0.8642 -1.26758,-1.28515 -3.28876,3.24431 -6.60981,6.45482 -10.02929,9.5625 -3.9881,3.62443 -8.06523,7.15388 -12.22461,10.58594 -3.99067,3.29284 -8.067,6.48434 -12.20899,9.59374 0.41311,0.51201 0.84017,1.12219 1.25196,1.625 3.82057,4.6652 7.58469,8.92743 11.27734,12.66211 0.22234,0.22488 0.43837,0.40399 0.66016,0.625 3.93514,-2.98394 7.83724,-6.00945 11.64257,-9.15039 4.40759,-3.63803 8.72669,-7.37903 12.95313,-11.2207 3.28238,-2.98356 6.45979,-6.07928 9.6289,-9.18164 z"
         style="opacity:1;fill:#ffffff;fill-opacity:1;stroke:none;stroke-width:31.99999809;stroke-linecap:round;stroke-linejoin:miter;stroke-miterlimit:4;stroke-dasharray:none;stroke-dashoffset:15.17888546;stroke-opacity:1;paint-order:fill markers stroke"
         inkscape:connector-curvature="0" />
      <path
         transform="scale(0.26458333)"
         id="path1303"
         d="m -295.83984,678.38477 c -0.58402,-0.32923 -1.09692,-0.66954 -1.69922,-0.9961 -4.61706,-2.50328 -9.7623,-4.92659 -15.3086,-7.29297 -0.31232,-0.13325 -0.68319,-0.25772 -0.99804,-0.39062 -1.17127,3.01105 -2.29619,6.04546 -3.55078,9.01367 -2.13002,5.03932 -4.37759,10.01553 -6.74219,14.92578 -2.36461,4.91025 -4.84534,9.7532 -7.4375,14.52735 -0.52093,0.95943 -1.09896,1.88217 -1.62891,2.83593 0.35438,0.18011 0.74315,0.4146 1.0957,0.5918 5.3878,2.7079 10.56068,5.07254 15.45313,6.98242 0.58639,0.22891 1.12876,0.38595 1.70703,0.60156 0.29385,-0.53412 0.61897,-1.0482 0.91016,-1.58398 2.74853,-5.05718 5.37735,-10.18783 7.88476,-15.38867 2.50742,-5.20084 4.89354,-10.47159 7.15235,-15.8086 1.11752,-2.64044 2.1068,-5.34517 3.16211,-8.01757 z"
         style="opacity:1;fill:#ffffff;fill-opacity:1;stroke:none;stroke-width:31.99999809;stroke-linecap:round;stroke-linejoin:miter;stroke-miterlimit:4;stroke-dasharray:none;stroke-dashoffset:15.17888546;stroke-opacity:1;paint-order:fill markers stroke"
         inkscape:connector-curvature="0" />
      <path
         transform="scale(0.26458333)"
         id="path1299"
         d="m -271.35352,531.08398 c -0.78702,-0.0769 -1.50952,-0.19463 -2.31836,-0.25781 -5.23606,-0.40895 -10.92188,-0.53157 -16.95117,-0.4375 -0.23598,0.004 -0.50711,0.0289 -0.74414,0.0332 0.28267,5.66475 0.43164,11.36418 0.43164,17.0996 0,5.81863 -0.14662,11.60378 -0.4375,17.34961 -0.19029,3.7589 -0.53928,7.47397 -0.85156,11.19922 0.28295,0.0142 0.60522,0.0552 0.88672,0.0684 6.02341,0.2824 11.71073,0.33892 16.95703,0.0937 0.76793,-0.0359 1.45449,-0.12668 2.20313,-0.17578 0.26889,-3.38982 0.60203,-6.76202 0.77539,-10.17773 0.30859,-6.08022 0.46484,-12.20103 0.46484,-18.35743 0,-5.51311 -0.16823,-10.98515 -0.41602,-16.4375 z"
         style="opacity:1;fill:#ffffff;fill-opacity:1;stroke:none;stroke-width:31.99999809;stroke-linecap:round;stroke-linejoin:miter;stroke-miterlimit:4;stroke-dasharray:none;stroke-dashoffset:15.17888546;stroke-opacity:1;paint-order:fill markers stroke"
         inkscape:connector-curvature="0" />
      <path
         transform="scale(0.26458333)"
         id="path1295"
         d="m -309.37109,386.55469 c -0.71201,0.23778 -1.38256,0.41275 -2.10743,0.66992 -4.94973,1.7561 -10.19429,3.95784 -15.66406,6.49609 -0.23722,0.11009 -0.50021,0.2578 -0.73828,0.36914 1.24782,2.43662 2.55242,4.83992 3.74219,7.31055 2.3646,4.91025 4.61217,9.88646 6.74219,14.92578 2.13001,5.03932 4.14091,10.14138 6.02929,15.30274 0.53331,1.45764 0.98242,2.95485 1.4961,4.42187 0.21541,-0.0834 0.46933,-0.16054 0.68359,-0.24414 5.61752,-2.19195 10.83628,-4.45468 15.5293,-6.8125 0.73283,-0.36819 1.36346,-0.75602 2.07031,-1.12891 -0.35584,-0.99883 -0.65701,-2.02286 -1.02149,-3.01757 -2.00269,-5.46575 -4.13377,-10.86995 -6.39257,-16.20704 -2.25881,-5.33708 -4.64493,-10.60765 -7.15235,-15.80859 -1.02285,-2.12162 -2.15345,-4.17925 -3.21679,-6.27734 z"
         style="opacity:1;fill:#ffffff;fill-opacity:1;stroke:none;stroke-width:31.99999809;stroke-linecap:round;stroke-linejoin:miter;stroke-miterlimit:4;stroke-dasharray:none;stroke-dashoffset:15.17888546;stroke-opacity:1;paint-order:fill markers stroke"
         inkscape:connector-curvature="0" />
      <path
         transform="scale(0.26458333)"
         id="path1291"
         d="m -403.1875,270.31641 c -0.41574,0.38422 -0.82035,0.70448 -1.23828,1.10156 -3.80753,3.6175 -7.7035,7.76113 -11.66797,12.30469 -0.28386,0.32532 -0.58067,0.72336 -0.86523,1.05273 1.14426,0.9194 2.33098,1.78672 3.46289,2.7207 4.15938,3.43205 8.23651,6.96346 12.22461,10.58789 3.9881,3.62444 7.88748,7.34256 11.69726,11.15235 2.09944,2.09944 4.10285,4.2932 6.14649,6.44726 0.26648,-0.26714 0.59199,-0.55001 0.85546,-0.8164 4.24031,-4.28728 8.08775,-8.47628 11.41602,-12.53907 0.39522,-0.48243 0.70946,-0.945 1.08984,-1.42382 -1.82223,-1.90425 -3.5915,-3.85903 -5.45507,-5.72266 -4.03781,-4.03792 -8.172,-7.98048 -12.39844,-11.82226 -4.22644,-3.84179 -8.54554,-7.58451 -12.95313,-11.22266 -0.75667,-0.62458 -1.55257,-1.20186 -2.31445,-1.82031 z"
         style="opacity:1;fill:#ffffff;fill-opacity:1;stroke:none;stroke-width:31.99999809;stroke-linecap:round;stroke-linejoin:miter;stroke-miterlimit:4;stroke-dasharray:none;stroke-dashoffset:15.17888546;stroke-opacity:1;paint-order:fill markers stroke"
         inkscape:connector-curvature="0" />
      <path
         transform="scale(0.26458333)"
         id="path1285"
         d="m -542.66016,221.46875 c 5.05622,1.31577 10.07456,2.72403 15.03516,4.26563 5.27636,1.63971 10.49685,3.40654 15.6582,5.29492 4.20214,1.53743 8.33731,3.21017 12.45899,4.9082 0.2125,-0.55188 0.49652,-1.15981 0.70312,-1.70703 2.12991,-5.6413 3.94205,-11.0324 5.33008,-16.09766 0.10761,-0.39268 0.16902,-0.74995 0.27149,-1.13867 -3.97126,-1.62129 -7.94138,-3.24776 -11.98243,-4.72852 -5.46566,-2.00276 -10.99324,-3.87608 -16.58007,-5.61523 -4.71677,-1.4683 -9.49673,-2.78702 -14.29493,-4.0625 -0.12354,0.2925 -0.25831,0.5435 -0.38086,0.83984 -2.00697,4.85341 -3.87865,10.2231 -5.65234,15.98633 -0.19865,0.64546 -0.3702,1.39956 -0.56641,2.05469 z"
         style="opacity:1;fill:#ffffff;fill-opacity:1;stroke:none;stroke-width:31.99999809;stroke-linecap:round;stroke-linejoin:miter;stroke-miterlimit:4;stroke-dasharray:none;stroke-dashoffset:15.17888546;stroke-opacity:1;paint-order:fill markers stroke"
         inkscape:connector-curvature="0" />
      <path
         transform="scale(0.26458333)"
         id="path1281"
         d="m -639.48047,190.88867 c -2.24173,0.072 -4.50517,0.0567 -6.73633,0.16992 -6.08021,0.30861 -12.12065,0.7692 -18.11718,1.37891 -5.99654,0.60971 -11.94817,1.36817 -17.85352,2.27148 -0.83963,0.12844 -1.66034,0.31299 -2.49805,0.44727 0.14511,5.21177 0.60867,10.8233 1.32617,16.75781 0.12381,1.02395 0.34825,2.17663 0.48633,3.21875 1.23114,-0.20195 2.44018,-0.46766 3.67578,-0.65625 5.57915,-0.85151 11.20314,-1.56591 16.86915,-2.14062 5.666,-0.57471 11.37526,-1.00991 17.12109,-1.30078 2.48671,-0.12589 5.00709,-0.11768 7.50781,-0.18946 -0.0458,-0.968 -0.0309,-2.05332 -0.0859,-3.0039 -0.34877,-6.01989 -0.88747,-11.68115 -1.67968,-16.87305 -0.004,-0.0281 -0.0113,-0.0521 -0.0156,-0.0801 z"
         style="opacity:1;fill:#ffffff;fill-opacity:1;stroke:none;stroke-width:31.99999809;stroke-linecap:round;stroke-linejoin:miter;stroke-miterlimit:4;stroke-dasharray:none;stroke-dashoffset:15.17888546;stroke-opacity:1;paint-order:fill markers stroke"
         inkscape:connector-curvature="0" />
      <path
         transform="scale(0.26458333)"
         id="path1276"
         d="m -542.66016,221.46875 c 0.19621,-0.65513 0.36776,-1.40923 0.56641,-2.05469 1.77369,-5.76323 3.64537,-11.13292 5.65234,-15.98633 0.12255,-0.29634 0.25732,-0.54734 0.38086,-0.83984 -0.88509,-0.23528 -1.74894,-0.52137 -2.63672,-0.75 -5.7005,-1.46804 -11.45699,-2.79885 -17.26367,-3.98828 -5.80667,-1.18943 -11.66496,-2.23731 -17.57031,-3.14063 -5.90535,-0.90331 -11.85699,-1.66177 -17.85352,-2.27148 -5.99653,-0.60971 -12.03697,-1.0703 -18.11718,-1.37891 -6.08022,-0.3086 -12.20103,-0.46484 -18.35743,-0.46484 -3.89728,0 -7.75378,0.1707 -11.62109,0.29492 0.004,0.028 0.0113,0.052 0.0156,0.0801 0.79221,5.1919 1.33091,10.85316 1.67968,16.87305 0.0551,0.95058 0.0401,2.0359 0.0859,3.0039 3.27748,-0.0941 6.53944,-0.24804 9.83984,-0.24804 5.81863,0 11.60183,0.14662 17.34766,0.4375 5.74583,0.29087 11.45509,0.72607 17.1211,1.30078 5.666,0.57471 11.28999,1.28911 16.86914,2.14062 5.57914,0.85152 11.1124,1.83966 16.59765,2.96094 5.48525,1.12128 10.92232,2.37575 16.30664,3.75977 0.32222,0.0828 0.63519,0.18773 0.95703,0.27148 z"
         style="opacity:1;fill:#ffffff;fill-opacity:1;stroke:none;stroke-width:31.99999809;stroke-linecap:round;stroke-linejoin:miter;stroke-miterlimit:4;stroke-dasharray:none;stroke-dashoffset:15.17888546;stroke-opacity:1;paint-order:fill markers stroke"
         inkscape:connector-curvature="0" />
      <path
         transform="scale(0.26458333)"
         id="path1272"
         d="m -416.95898,284.77539 c 0.28456,-0.32937 0.58137,-0.72741 0.86523,-1.05273 3.96447,-4.54356 7.86044,-8.68719 11.66797,-12.30469 0.41793,-0.39708 0.82254,-0.71734 1.23828,-1.10156 -3.67604,-2.98399 -7.37518,-5.94062 -11.16992,-8.7793 -4.58123,-3.42702 -9.24872,-6.74669 -13.9961,-9.95508 -4.74737,-3.20838 -9.57444,-6.30485 -14.48046,-9.28711 -4.90603,-2.98226 -9.89009,-5.84902 -14.94727,-8.59765 -5.05718,-2.74864 -10.18783,-5.37921 -15.38867,-7.88672 -5.20084,-2.50751 -10.47159,-4.89151 -15.8086,-7.15039 -1.39107,-0.58878 -2.8246,-1.09446 -4.2246,-1.66602 -0.10247,0.38872 -0.16388,0.74599 -0.27149,1.13867 -1.38803,5.06526 -3.20017,10.45636 -5.33008,16.09766 -0.2066,0.54722 -0.49062,1.15515 -0.70312,1.70703 0.94086,0.38761 1.9072,0.72524 2.84375,1.12109 5.03932,2.13001 10.01748,4.37954 14.92773,6.74414 4.91025,2.36461 9.7532,4.84339 14.52735,7.43555 4.77414,2.59217 9.47836,5.29669 14.10937,8.10938 4.63101,2.81268 9.18909,5.73358 13.66992,8.75976 4.48084,3.02618 8.88536,6.158 13.20899,9.39063 3.14701,2.35292 6.20121,4.81826 9.26172,7.27734 z"
         style="opacity:1;fill:#ffffff;fill-opacity:1;stroke:none;stroke-width:31.99999809;stroke-linecap:round;stroke-linejoin:miter;stroke-miterlimit:4;stroke-dasharray:none;stroke-dashoffset:15.17888546;stroke-opacity:1;paint-order:fill markers stroke"
         inkscape:connector-curvature="0" />
      <path
         transform="scale(0.26458333)"
         id="path1268"
         d="m -327.88086,394.08984 c 0.23807,-0.11134 0.50106,-0.25905 0.73828,-0.36914 5.46977,-2.53825 10.71433,-4.73999 15.66406,-6.49609 0.72487,-0.25717 1.39542,-0.43214 2.10743,-0.66992 -1.54334,-3.04515 -3.04065,-6.11707 -4.66797,-9.11133 -2.74854,-5.05728 -5.6155,-10.04113 -8.59766,-14.94727 -2.98215,-4.90613 -6.08078,-9.73493 -9.28906,-14.48242 -3.20828,-4.74748 -6.52622,-9.41475 -9.95313,-13.99609 -3.4269,-4.58134 -6.96157,-9.07668 -10.59961,-13.48438 -3.63803,-4.40769 -7.38099,-8.72657 -11.22265,-12.95312 -2.06861,-2.27586 -4.23925,-4.45412 -6.36524,-6.67578 -0.38038,0.47882 -0.69462,0.94139 -1.08984,1.42382 -3.32827,4.06279 -7.17571,8.25179 -11.41602,12.53907 -0.26347,0.26639 -0.58898,0.54926 -0.85546,0.8164 1.66488,1.75486 3.38067,3.46156 5.00781,5.25196 3.62443,3.9881 7.15388,8.06327 10.58594,12.22265 3.43205,4.15938 6.76541,8.40294 9.99804,12.72657 3.23263,4.32362 6.36445,8.72815 9.39063,13.20898 3.02617,4.48083 5.94707,9.03696 8.75976,13.66797 2.81269,4.63101 5.51721,9.33523 8.10938,14.10937 1.2879,2.372 2.46315,4.81272 3.69531,7.21875 z"
         style="opacity:1;fill:#ffffff;fill-opacity:1;stroke:none;stroke-width:31.99999809;stroke-linecap:round;stroke-linejoin:miter;stroke-miterlimit:4;stroke-dasharray:none;stroke-dashoffset:15.17888546;stroke-opacity:1;paint-order:fill markers stroke"
         inkscape:connector-curvature="0" />
      <path
         transform="scale(0.26458333)"
         id="path1264"
         d="m -291.36719,530.42188 c 0.23703,-0.004 0.50816,-0.0295 0.74414,-0.0332 6.02929,-0.0941 11.71511,0.0285 16.95117,0.4375 0.80884,0.0632 1.53134,0.18091 2.31836,0.25781 -0.0289,-0.63619 -0.0166,-1.28264 -0.0488,-1.91796 -0.30859,-6.08023 -0.76923,-12.12063 -1.37891,-18.11719 -0.60968,-5.99656 -1.36821,-11.95008 -2.27148,-17.85547 -0.90328,-5.90539 -1.95125,-11.76359 -3.14063,-17.57031 -1.18938,-5.80673 -2.5203,-11.56116 -3.98828,-17.26172 -1.46798,-5.70056 -3.07342,-11.34669 -4.8125,-16.9336 -1.42259,-4.57013 -2.99432,-9.07298 -4.59375,-13.5625 -0.70685,0.37289 -1.33748,0.76072 -2.07031,1.12891 -4.69302,2.35782 -9.91178,4.62055 -15.5293,6.8125 -0.21426,0.0836 -0.46818,0.16074 -0.68359,0.24414 1.30519,3.72753 2.62219,7.4501 3.79882,11.23633 1.63972,5.27636 3.15309,10.60786 4.53711,15.99219 1.38402,5.38432 2.63848,10.82139 3.75977,16.30664 1.12128,5.48525 2.10942,11.02046 2.96094,16.59961 0.85151,5.57914 1.56591,11.20313 2.14062,16.86914 0.57471,5.666 1.00991,11.37331 1.30078,17.11914 0.004,0.0822 0.002,0.16588 0.006,0.24805 z"
         style="opacity:1;fill:#ffffff;fill-opacity:1;stroke:none;stroke-width:31.99999809;stroke-linecap:round;stroke-linejoin:miter;stroke-miterlimit:4;stroke-dasharray:none;stroke-dashoffset:15.17888546;stroke-opacity:1;paint-order:fill markers stroke"
         inkscape:connector-curvature="0" />
      <path
         transform="scale(0.26458333)"
         id="path1260"
         d="m -313.8457,669.70508 c 0.31485,0.1329 0.68572,0.25737 0.99804,0.39062 5.5463,2.36638 10.69154,4.78969 15.3086,7.29297 0.6023,0.32656 1.1152,0.66687 1.69922,0.9961 1.07772,-2.7292 2.21859,-5.42594 3.23046,-8.1875 2.0027,-5.46567 3.87616,-10.9952 5.61524,-16.58204 1.73908,-5.58683 3.34452,-11.23113 4.8125,-16.93164 1.46798,-5.7005 2.7989,-11.45699 3.98828,-17.26367 1.18938,-5.80667 2.23735,-11.66301 3.14063,-17.56836 0.90327,-5.90535 1.6618,-11.85894 2.27148,-17.85547 0.26718,-2.62782 0.39376,-5.29515 0.60352,-7.93945 -0.74864,0.0491 -1.4352,0.1399 -2.20313,0.17578 -5.2463,0.24517 -10.93362,0.18865 -16.95703,-0.0937 -0.2815,-0.0132 -0.60377,-0.0542 -0.88672,-0.0684 -0.16507,1.96915 -0.25048,3.96059 -0.44922,5.91992 -0.57471,5.66601 -1.28911,11.29 -2.14062,16.86915 -0.85152,5.57914 -1.83966,11.1124 -2.96094,16.59765 -1.12129,5.48525 -2.37575,10.92232 -3.75977,16.30664 -1.38402,5.38432 -2.89739,10.71778 -4.53711,15.99414 -1.63971,5.27636 -3.40654,10.49685 -5.29492,15.65821 -0.7761,2.12126 -1.66124,4.18805 -2.47851,6.28906 z"
         style="opacity:1;fill:#ffffff;fill-opacity:1;stroke:none;stroke-width:31.99999809;stroke-linecap:round;stroke-linejoin:miter;stroke-miterlimit:4;stroke-dasharray:none;stroke-dashoffset:15.17888546;stroke-opacity:1;paint-order:fill markers stroke"
         inkscape:connector-curvature="0" />
      <path
         transform="scale(0.26458333)"
         id="path1256"
         d="m -391.24219,787.39844 c 0.3962,0.42095 0.87833,0.86618 1.26758,1.28515 4.10429,4.41766 7.81787,8.7239 11.01758,12.88868 0.24199,0.31498 0.42995,0.61439 0.66601,0.92773 0.91148,-0.89228 1.86761,-1.7387 2.76954,-2.64062 4.0378,-4.03781 7.97864,-8.172 11.82031,-12.39844 3.84166,-4.22644 7.58462,-8.54554 11.22265,-12.95313 3.63804,-4.40758 7.17271,-8.90314 10.59961,-13.48437 3.42691,-4.58123 6.74485,-9.24677 9.95313,-13.99414 3.20828,-4.74738 6.30691,-9.5764 9.28906,-14.48242 2.66621,-4.38627 5.20771,-8.85588 7.6875,-13.36329 -0.57827,-0.21561 -1.12064,-0.37265 -1.70703,-0.60156 -4.89245,-1.90988 -10.06533,-4.27452 -15.45313,-6.98242 -0.35255,-0.1772 -0.74132,-0.41169 -1.0957,-0.5918 -2.10709,3.79218 -4.23303,7.5731 -6.48047,11.27344 -2.81269,4.63101 -5.73359,9.18909 -8.75976,13.66992 -3.02618,4.48084 -6.158,8.88536 -9.39063,13.20899 -3.23263,4.32362 -6.56599,8.56718 -9.99804,12.72656 -3.43206,4.15938 -6.96151,8.23456 -10.58594,12.22266 -3.62444,3.98809 -7.34451,7.88943 -11.1543,11.69921 -0.54319,0.54319 -1.12109,1.05037 -1.66797,1.58985 z"
         style="opacity:1;fill:#ffffff;fill-opacity:1;stroke:none;stroke-width:31.99999809;stroke-linecap:round;stroke-linejoin:miter;stroke-miterlimit:4;stroke-dasharray:none;stroke-dashoffset:15.17888546;stroke-opacity:1;paint-order:fill markers stroke"
         inkscape:connector-curvature="0" />
      <path
         transform="scale(0.26458333)"
         id="path1252"
         d="m -509.62891,863.09375 c 0.29247,0.82846 0.67902,1.73669 0.95899,2.55469 1.95262,5.70509 3.59316,11.14971 4.82226,16.25586 0.0263,0.10919 0.0386,0.20752 0.0645,0.3164 4.9829,-1.84994 9.92941,-3.77841 14.80468,-5.84179 5.33701,-2.25881 10.60776,-4.64493 15.8086,-7.15235 5.20084,-2.50741 10.33149,-5.13623 15.38867,-7.88476 5.05718,-2.74854 10.04124,-5.61551 14.94727,-8.59766 4.90602,-2.98215 9.73309,-6.07883 14.48046,-9.28711 4.74738,-3.20828 9.41487,-6.52817 13.9961,-9.95508 0.62598,-0.46825 1.219,-0.97696 1.8418,-1.44922 -0.22179,-0.22101 -0.43782,-0.40012 -0.66016,-0.625 -3.69265,-3.73468 -7.45677,-7.99691 -11.27734,-12.66211 -0.41179,-0.50281 -0.83885,-1.11299 -1.25196,-1.625 -0.17511,0.13146 -0.34025,0.27514 -0.51562,0.40626 -4.32363,3.23263 -8.72815,6.36249 -13.20899,9.38867 -4.48083,3.02617 -9.03891,5.94707 -13.66992,8.75976 -4.63101,2.81269 -9.33523,5.51721 -14.10937,8.10938 -4.77415,2.59216 -9.6171,5.07289 -14.52735,7.4375 -4.91025,2.3646 -9.88841,4.61413 -14.92773,6.74414 -4.26935,1.80456 -8.60752,3.4759 -12.96485,5.10742 z"
         style="opacity:1;fill:#ffffff;fill-opacity:1;stroke:none;stroke-width:31.99999809;stroke-linecap:round;stroke-linejoin:miter;stroke-miterlimit:4;stroke-dasharray:none;stroke-dashoffset:15.17888546;stroke-opacity:1;paint-order:fill markers stroke"
         inkscape:connector-curvature="0" />
      <path
         transform="scale(0.26458333)"
         id="path1248"
         d="m -648.17383,883.7832 c -0.0956,1.26217 -0.12229,2.66599 -0.23242,3.89844 -0.50981,5.7053 -1.21192,11.01958 -2.0957,15.9707 1.43359,0.09 2.84703,0.25319 4.28515,0.32618 6.08022,0.30859 12.20103,0.46484 18.35742,0.46484 6.1564,0 12.27721,-0.15625 18.35743,-0.46484 6.08021,-0.30859 12.12065,-0.76923 18.11718,-1.37891 5.99653,-0.60968 11.94817,-1.36821 17.85352,-2.27149 5.90535,-0.90327 11.76364,-1.95124 17.57031,-3.14062 2.92073,-0.59825 5.78926,-1.33665 8.6836,-2.00586 -1.84369,-4.89445 -3.54013,-10.28915 -5.125,-16.07617 -0.26373,-0.96296 -0.48442,-2.0787 -0.74219,-3.0625 -2.2633,0.51192 -4.49891,1.09635 -6.7793,1.5625 -5.48525,1.12128 -11.01851,2.10942 -16.59765,2.96094 -5.57915,0.85151 -11.20314,1.56786 -16.86914,2.14257 -5.66601,0.57472 -11.37527,1.00796 -17.1211,1.29883 -5.74583,0.29088 -11.52903,0.43946 -17.34766,0.43946 -5.81862,0 -11.60182,-0.14858 -17.34765,-0.43946 -0.99565,-0.0504 -1.97346,-0.16559 -2.9668,-0.22461 z"
         style="opacity:1;fill:#ffffff;fill-opacity:1;stroke:none;stroke-width:31.99999809;stroke-linecap:round;stroke-linejoin:miter;stroke-miterlimit:4;stroke-dasharray:none;stroke-dashoffset:15.17888546;stroke-opacity:1;paint-order:fill markers stroke"
         inkscape:connector-curvature="0" />
      <path
         transform="scale(0.26458333)"
         id="path1244"
         d="m -782.81836,846.71875 c -0.73701,1.3766 -1.46815,2.92869 -2.20703,4.25586 -2.62187,4.70934 -5.26179,8.95718 -7.91406,12.92773 3.44677,1.80355 6.8789,3.63116 10.39062,5.32422 5.20084,2.50742 10.47159,4.89354 15.8086,7.15235 5.337,2.2588 10.74136,4.39184 16.20703,6.39453 5.46566,2.00269 10.99324,3.8742 16.58008,5.61328 5.58683,1.73908 11.23309,3.34452 16.93359,4.8125 5.7005,1.46798 11.45504,2.7989 17.26172,3.98828 1.38261,0.2832 2.79522,0.48091 4.18359,0.74805 0.32665,-4.94813 0.89155,-10.17694 1.74219,-15.7461 0.19937,-1.30532 0.52654,-2.76542 0.75,-4.09961 -0.89918,-0.17615 -1.8163,-0.30109 -2.71289,-0.48437 -5.48525,-1.12129 -10.92232,-2.37575 -16.30664,-3.75977 -5.38433,-1.38402 -10.71583,-2.89739 -15.99219,-4.53711 -5.27636,-1.63971 -10.49685,-3.40458 -15.6582,-5.29297 -5.16136,-1.88838 -10.26341,-3.89928 -15.30274,-6.02929 -5.03932,-2.13001 -10.01553,-4.37954 -14.92578,-6.74414 -2.98672,-1.4383 -5.90101,-3.00044 -8.83789,-4.52344 z"
         style="opacity:1;fill:#ffffff;fill-opacity:1;stroke:none;stroke-width:31.99999809;stroke-linecap:round;stroke-linejoin:miter;stroke-miterlimit:4;stroke-dasharray:none;stroke-dashoffset:15.17888546;stroke-opacity:1;paint-order:fill markers stroke"
         inkscape:connector-curvature="0" />
      <path
         transform="scale(0.26458333)"
         id="path1240"
         d="m -890.59375,758.4375 c -1.42099,1.1086 -2.91192,2.38909 -4.30859,3.4375 -4.09311,3.07248 -8.00876,5.6999 -11.85743,8.15625 1.18494,1.48286 2.3116,3.01312 3.51954,4.47656 3.63803,4.40759 7.38099,8.72669 11.22265,12.95313 3.84167,4.22644 7.78251,8.36063 11.82031,12.39844 4.03781,4.0378 8.172,7.98059 12.39844,11.82226 4.22644,3.84167 8.54554,7.58267 12.95313,11.2207 4.40758,3.63804 8.90314,7.17271 13.48437,10.59961 3.13323,2.34375 6.36077,4.56656 9.57227,6.8086 2.21546,-4.13877 4.64615,-8.38211 7.5,-12.83008 0.86935,-1.35498 1.95001,-2.81404 2.86914,-4.19336 -2.70306,-1.89998 -5.43241,-3.76358 -8.07617,-5.74023 -4.32363,-3.23264 -8.56719,-6.56795 -12.72657,-10 -4.15938,-3.43206 -8.23455,-6.96151 -12.22265,-10.58594 -3.9881,-3.62444 -7.88944,-7.34256 -11.69922,-11.15235 -3.80979,-3.80978 -7.52986,-7.71112 -11.1543,-11.69921 -3.62443,-3.9881 -7.15388,-8.06328 -10.58594,-12.22266 -0.93007,-1.12718 -1.79336,-2.30979 -2.70898,-3.44922 z"
         style="opacity:1;fill:#ffffff;fill-opacity:1;stroke:none;stroke-width:31.99999809;stroke-linecap:round;stroke-linejoin:miter;stroke-miterlimit:4;stroke-dasharray:none;stroke-dashoffset:15.17888546;stroke-opacity:1;paint-order:fill markers stroke"
         inkscape:connector-curvature="0" />
      <path
         transform="scale(0.26458333)"
         id="path1236"
         d="m -953.45508,634.33398 c -1.83309,0.45738 -3.80189,1.04518 -5.58398,1.45313 -4.94075,1.13102 -9.53711,1.92469 -14.01367,2.60156 1.34501,5.11648 2.76416,10.20232 4.32812,15.22656 1.73908,5.58684 3.61254,11.11637 5.61523,16.58204 2.0027,5.46566 4.13573,10.86807 6.39454,16.20507 2.2588,5.33701 4.64297,10.60776 7.15039,15.8086 2.50741,5.20084 5.13623,10.33149 7.88476,15.38867 2.74854,5.05718 5.61746,10.04124 8.59961,14.94727 0.0583,0.0959 0.12324,0.18732 0.18164,0.2832 3.61241,-2.78763 7.40748,-5.57941 11.68164,-8.38867 1.47561,-0.96987 3.204,-1.94958 4.7461,-2.92188 -2.64978,-4.38852 -5.21963,-8.8312 -7.67188,-13.34765 -2.59216,-4.77415 -5.07289,-9.6171 -7.4375,-14.52735 -2.3646,-4.91025 -4.61218,-9.88646 -6.74219,-14.92578 -2.13001,-5.03932 -4.14091,-10.14138 -6.02929,-15.30273 -1.88838,-5.16136 -3.65521,-10.38185 -5.29492,-15.65821 -1.37623,-4.42848 -2.6121,-8.91889 -3.8086,-13.42383 z"
         style="opacity:1;fill:#ffffff;fill-opacity:1;stroke:none;stroke-width:31.99999809;stroke-linecap:round;stroke-linejoin:miter;stroke-miterlimit:4;stroke-dasharray:none;stroke-dashoffset:15.17888546;stroke-opacity:1;paint-order:fill markers stroke"
         inkscape:connector-curvature="0" />
      <path
         transform="scale(0.26458333)"
         id="path1232"
         d="m -960.77148,495.43555 c -1.82139,-0.3216 -3.81888,-0.57887 -5.57618,-0.92383 -5.00864,-0.98321 -9.56655,-2.13147 -13.95703,-3.34375 -0.10796,0.67943 -0.25721,1.3447 -0.36133,2.02539 -0.90327,5.90539 -1.6618,11.85891 -2.27148,17.85547 -0.60968,5.99656 -1.07032,12.03696 -1.37891,18.11719 -0.30859,6.08022 -0.46484,12.19907 -0.46484,18.35546 0,6.1564 0.15625,12.27721 0.46484,18.35743 0.30859,6.08021 0.76923,12.12065 1.37891,18.11718 0.33305,3.2757 0.81907,6.50491 1.24023,9.75391 4.36991,-1.05403 8.88286,-2.0495 13.84375,-2.86328 1.84158,-0.30209 3.92772,-0.50661 5.8379,-0.78125 -0.34096,-2.70605 -0.75283,-5.38951 -1.0293,-8.11524 -0.57471,-5.666 -1.00991,-11.3733 -1.30078,-17.11914 -0.29088,-5.74583 -0.4375,-11.53098 -0.4375,-17.34961 0,-5.81862 0.14662,-11.60182 0.4375,-17.34765 0.29087,-5.74583 0.72607,-11.45314 1.30078,-17.11914 0.57471,-5.66601 1.28911,-11.29 2.14062,-16.86914 0.0385,-0.25202 0.0938,-0.49817 0.13282,-0.75 z"
         style="opacity:1;fill:#ffffff;fill-opacity:1;stroke:none;stroke-width:31.99999809;stroke-linecap:round;stroke-linejoin:miter;stroke-miterlimit:4;stroke-dasharray:none;stroke-dashoffset:15.17888546;stroke-opacity:1;paint-order:fill markers stroke"
         inkscape:connector-curvature="0" />
      <path
         transform="scale(0.26458333)"
         id="path1228"
         d="m -911.26172,365.31641 c -1.39169,-0.94227 -2.96397,-1.89758 -4.29883,-2.83594 -4.30294,-3.02483 -8.13613,-6.01952 -11.73828,-9 -1.94461,2.99321 -3.92481,5.96148 -5.78125,9.01562 -2.98215,4.90614 -5.85107,9.88999 -8.59961,14.94727 -2.74853,5.05728 -5.37735,10.18774 -7.88476,15.38867 -2.50742,5.20094 -4.89159,10.47151 -7.15039,15.80859 -2.25881,5.33709 -4.39184,10.74129 -6.39454,16.20704 -2.00269,5.46574 -3.87615,10.99317 -5.61523,16.58007 -0.55444,1.78119 -1.00801,3.60544 -1.53516,5.39844 4.50974,0.82093 9.15214,1.78084 14.125,3.08399 1.69417,0.44395 3.56329,1.06784 5.30274,1.55859 0.41143,-1.38715 0.75681,-2.80205 1.18555,-4.18164 1.63971,-5.27636 3.40654,-10.49685 5.29492,-15.6582 1.88838,-5.16136 3.89928,-10.26342 6.02929,-15.30274 2.13001,-5.03932 4.37759,-10.01553 6.74219,-14.92578 2.36461,-4.91025 4.84534,-9.75515 7.4375,-14.5293 2.59217,-4.77414 5.29669,-9.47836 8.10938,-14.10937 1.53213,-2.52261 3.17553,-4.96679 4.77148,-7.44531 z"
         style="opacity:1;fill:#ffffff;fill-opacity:1;stroke:none;stroke-width:31.99999809;stroke-linecap:round;stroke-linejoin:miter;stroke-miterlimit:4;stroke-dasharray:none;stroke-dashoffset:15.17888546;stroke-opacity:1;paint-order:fill markers stroke"
         inkscape:connector-curvature="0" />
      <path
         transform="scale(0.26458333)"
         id="path1224"
         d="m -813.16992,266.10742 c -0.72737,-1.17602 -1.60025,-2.43017 -2.29297,-3.58789 -2.86183,-4.78291 -5.32444,-9.35694 -7.48242,-13.77148 -1.46397,0.95841 -2.97098,1.85475 -4.41992,2.83398 -4.74738,3.20839 -9.41487,6.52806 -13.9961,9.95508 -4.58123,3.42701 -9.07679,6.96146 -13.48437,10.59961 -4.40759,3.63815 -8.72669,7.38087 -12.95313,11.22266 -4.22644,3.84178 -8.36063,7.78434 -12.39844,11.82226 -4.0378,4.03792 -7.97864,8.17188 -11.82031,12.39844 -2.7942,3.07415 -5.47509,6.25135 -8.16211,9.42187 3.91918,2.6538 7.925,5.55 12.08985,8.88477 1.21557,0.9733 2.51073,2.1616 3.74414,3.18359 2.32773,-2.7309 4.63443,-5.48026 7.04687,-8.13476 3.62444,-3.9881 7.34451,-7.88944 11.1543,-11.69922 3.80978,-3.80979 7.71112,-7.52791 11.69922,-11.15235 3.9881,-3.62443 8.06327,-7.15584 12.22265,-10.58789 4.15938,-3.43205 8.40294,-6.76541 12.72657,-9.99804 4.32362,-3.23263 8.72619,-6.36445 13.20703,-9.39063 1.0226,-0.69062 2.08857,-1.32035 3.11914,-2 z"
         style="opacity:1;fill:#ffffff;fill-opacity:1;stroke:none;stroke-width:31.99999809;stroke-linecap:round;stroke-linejoin:miter;stroke-miterlimit:4;stroke-dasharray:none;stroke-dashoffset:15.17888546;stroke-opacity:1;paint-order:fill markers stroke"
         inkscape:connector-curvature="0" />
      <path
         transform="scale(0.26458333)"
         id="path1218"
         d="m -684.68555,195.15625 c -5.05407,0.81017 -10.09119,1.67305 -15.07226,2.69336 -5.80668,1.18943 -11.56122,2.52024 -17.26172,3.98828 -5.7005,1.46804 -11.34676,3.07335 -16.93359,4.8125 -5.58684,1.73915 -11.11442,3.61247 -16.58008,5.61523 -5.46567,2.00277 -10.87003,4.13565 -16.20703,6.39454 -5.33701,2.25888 -10.60776,4.64288 -15.8086,7.15039 -0.30686,0.14794 -0.60183,0.31604 -0.9082,0.46484 2.68849,4.2482 5.34722,8.89932 7.97461,13.98633 0.55937,1.08302 1.10686,2.35367 1.66406,3.46875 4.85846,-2.33651 9.77896,-4.56495 14.76367,-6.67188 5.03933,-2.13001 10.14138,-4.14091 15.30274,-6.02929 5.16135,-1.88838 10.38184,-3.65521 15.6582,-5.29492 5.27636,-1.63972 10.60786,-3.1531 15.99219,-4.53711 5.38432,-1.38402 10.82139,-2.63849 16.30664,-3.75977 4.27044,-0.87295 8.59405,-1.59477 12.92187,-2.30469 -0.13808,-1.04212 -0.36252,-2.1948 -0.48633,-3.21875 -0.7175,-5.93451 -1.18106,-11.54604 -1.32617,-16.75781 z"
         style="opacity:1;fill:#ffffff;fill-opacity:1;stroke:none;stroke-width:31.99999809;stroke-linecap:round;stroke-linejoin:miter;stroke-miterlimit:4;stroke-dasharray:none;stroke-dashoffset:15.17888546;stroke-opacity:1;paint-order:fill markers stroke"
         inkscape:connector-curvature="0" />
      <circle
         r="111.08353"
         cy="144.86459"
         cx="-166.12051"
         id="path830"
         style="opacity:1;fill:none;fill-opacity:1;stroke:#000000;stroke-width:9.26041698;stroke-linecap:round;stroke-linejoin:miter;stroke-miterlimit:4;stroke-dasharray:none;stroke-dashoffset:15.17888546;stroke-opacity:1;paint-order:fill markers stroke" />
      <path
         inkscape:connector-curvature="0"
         id="circle832"
         d="m -166.12109,50.427734 c -52.12418,0 -94.43555,42.313326 -94.43555,94.437496 0,52.12418 42.31137,94.43555 94.43555,94.43555 52.12417,0 94.435543,-42.31137 94.435543,-94.43555 0,-52.12417 -42.311373,-94.437496 -94.435543,-94.437496 z m 0,5.292969 c 49.26434,0 89.144528,39.880186 89.144528,89.144527 0,49.26435 -39.880188,89.14454 -89.144528,89.14454 -49.26435,0 -89.14453,-39.88019 -89.14453,-89.14454 0,-49.264341 39.88018,-89.144527 89.14453,-89.144527 z"
         style="color:#000000;font-style:normal;font-variant:normal;font-weight:normal;font-stretch:normal;font-size:medium;line-height:normal;font-family:sans-serif;font-variant-ligatures:normal;font-variant-position:normal;font-variant-caps:normal;font-variant-numeric:normal;font-variant-alternates:normal;font-feature-settings:normal;text-indent:0;text-align:start;text-decoration:none;text-decoration-line:none;text-decoration-style:solid;text-decoration-color:#000000;letter-spacing:normal;word-spacing:normal;text-transform:none;writing-mode:lr-tb;direction:ltr;text-orientation:mixed;dominant-baseline:auto;baseline-shift:baseline;text-anchor:start;white-space:normal;shape-padding:0;clip-rule:nonzero;display:inline;overflow:visible;visibility:visible;opacity:1;isolation:auto;mix-blend-mode:normal;color-interpolation:sRGB;color-interpolation-filters:linearRGB;solid-color:#000000;solid-opacity:1;vector-effect:none;fill:#ff0000;fill-opacity:1;fill-rule:nonzero;stroke:none;stroke-width:5.29166651;stroke-linecap:round;stroke-linejoin:miter;stroke-miterlimit:4;stroke-dasharray:none;stroke-dashoffset:15.17888546;stroke-opacity:1;paint-order:fill markers stroke;color-rendering:auto;image-rendering:auto;shape-rendering:auto;text-rendering:auto;enable-background:accumulate" />
      <circle
         r="27.711985"
         cy="144.86459"
         cx="-166.12051"
         id="circle834"
         style="opacity:1;fill:none;fill-opacity:1;stroke:#ff0000;stroke-width:7.9375;stroke-linecap:round;stroke-linejoin:miter;stroke-miterlimit:4;stroke-dasharray:none;stroke-dashoffset:15.17888546;stroke-opacity:1;paint-order:fill markers stroke" />
      <circle
         style="opacity:1;fill:#ffffff;fill-opacity:1;stroke:none;stroke-width:7.93749905;stroke-linecap:round;stroke-linejoin:miter;stroke-miterlimit:4;stroke-dasharray:none;stroke-dashoffset:15.17888546;stroke-opacity:1;paint-order:fill markers stroke"
         id="circle1139"
         cx="-166.12051"
         cy="144.86459"
         r="25.633116" />
      <path
         sodipodi:nodetypes="cccsc"
         inkscape:connector-curvature="0"
         id="rect1350"
         transform="scale(0.26458333)"
         d="m -274.01758,550.05078 c -133.57578,163.92911 -333.75708,259.14164 -545.2168,259.32227 -16.50764,-0.24484 -33.00156,-1.07022 -49.45117,-2.47461 63.12951,58.63464 147.73324,94.47461 240.82617,94.47461 194.79208,0 352.48411,-156.85405 353.8418,-351.32227 z"
         style="opacity:1;fill:#ff0000;fill-opacity:1;stroke:none;stroke-width:5;stroke-linecap:round;stroke-linejoin:miter;stroke-miterlimit:4;stroke-dasharray:none;stroke-dashoffset:15.17888546;stroke-opacity:1;paint-order:fill markers stroke" />
    </g>
  </g>
</svg>
